<svg width="236" height="236" viewBox="0 0 236 236" fill="none" xmlns="http://www.w3.org/2000/svg">
<g filter="url(#filter0_d_93_37)">
<path d="M9 195C9 212.673 23.3269 227 41 227H201C218.673 227 233 212.673 233 195V35C233 17.3269 218.673 3 201 3H41C23.3269 3 9 17.3269 9 35V195Z" fill="#007ACC"/>
<path d="M58.5348 115.743L58.4637 124.916H87.6192V207.761H108.241V124.916H137.397V115.921C137.397 110.943 137.29 106.783 137.148 106.676C137.041 106.534 119.299 106.463 97.7881 106.499L58.6414 106.605L58.5348 115.743Z" fill="white"/>
<path d="M189.746 106.345C195.435 107.767 199.772 110.291 203.755 114.416C205.817 116.62 208.875 120.638 209.124 121.598C209.195 121.883 199.452 128.425 193.55 132.087C193.337 132.229 192.484 131.305 191.524 129.883C188.644 125.687 185.621 123.874 180.999 123.554C174.208 123.091 169.835 126.647 169.87 132.585C169.87 134.327 170.119 135.358 170.83 136.78C172.324 139.874 175.097 141.723 183.808 145.491C199.844 152.389 206.706 156.94 210.972 163.411C215.737 170.629 216.804 182.149 213.568 190.718C210.012 200.034 201.195 206.363 188.786 208.46C184.946 209.136 175.844 209.029 171.719 208.283C162.724 206.683 154.19 202.238 148.928 196.407C146.866 194.131 142.848 188.194 143.097 187.767C143.204 187.625 144.128 187.056 145.159 186.451C146.155 185.883 149.924 183.714 153.479 181.651L159.915 177.918L161.266 179.909C163.15 182.789 167.275 186.736 169.764 188.051C176.91 191.82 186.724 191.287 191.559 186.949C193.621 185.065 194.475 183.109 194.475 180.229C194.475 177.634 194.155 176.496 192.804 174.54C191.061 172.051 187.506 169.954 177.408 165.58C165.852 160.603 160.875 157.509 156.324 152.603C153.692 149.758 151.204 145.207 150.172 141.403C149.319 138.238 149.106 130.309 149.781 127.109C152.164 115.945 160.59 108.158 172.75 105.847C176.697 105.1 185.87 105.385 189.746 106.345Z" fill="white"/>
<path d="M7.5 35V195C7.5 213.502 22.4985 228.5 41 228.5H201C219.502 228.5 234.5 213.502 234.5 195V35C234.5 16.4985 219.502 1.5 201 1.5H41C22.4985 1.5 7.5 16.4985 7.5 35Z" stroke="black" stroke-width="3"/>
</g>
<defs>
<filter id="filter0_d_93_37" x="0" y="0" width="236" height="236" filterUnits="userSpaceOnUse" color-interpolation-filters="sRGB">
<feFlood flood-opacity="0" result="BackgroundImageFix"/>
<feColorMatrix in="SourceAlpha" type="matrix" values="0 0 0 0 0 0 0 0 0 0 0 0 0 0 0 0 0 0 127 0" result="hardAlpha"/>
<feOffset dx="-6" dy="6"/>
<feComposite in2="hardAlpha" operator="out"/>
<feColorMatrix type="matrix" values="0 0 0 0 0 0 0 0 0 0 0 0 0 0 0 0 0 0 1 0"/>
<feBlend mode="normal" in2="BackgroundImageFix" result="effect1_dropShadow_93_37"/>
<feBlend mode="normal" in="SourceGraphic" in2="effect1_dropShadow_93_37" result="shape"/>
</filter>
</defs>
</svg>
